# AST/ASF file generated using VICON BodyLanguage
# -----------------------------------------------
:version 1.10
:name VICON
:units
  mass 1.0
  length 0.45
  angle deg
:documentation
   .ast/.asf automatically generated from VICON data using
   VICON BodyBuilder and BodyLanguage model FoxedUp or BRILLIANT.MOD
:root
   order TX TY TZ RX RY RZ
   axis XYZ
   position 0 0 0  
   orientation 0 0 0 
:bonedata
  begin
     id 1 
     name lhipjoint
     direction 0.606768 -0.715223 0.346827 
     length 2.41543 
     axis 0 0 0  XYZ
  end
  begin
     id 2 
     name lfemur
     direction 0.34202 -0.939693 0  
     length 7.2778  
     axis 0 0 20  XYZ
    dof rx ry rz
    limits (-160.0 20.0)
           (-70.0 70.0)
           (-60.0 70.0)
  end
  begin
     id 3 
     name ltibia
     direction 0.34202 -0.939693 0   
     length 7.61811   
     axis 0 0 20   XYZ
    dof rx
    limits (-10.0 170.0)
  end
  begin
     id 4 
     name lfoot
     direction 0.0823924 -0.226371 0.97055   
     length 2.33618   
     axis -90 7.62852e-016 20   XYZ
    dof rx rz
    limits (-45.0 90.0)
           (-70.0 20.0)
  end
  begin
     id 5 
     name ltoes
     direction 1.53554e-011 -4.21934e-011 1   
     length 1.17015   
     axis -90 7.62852e-016 20   XYZ
    dof rx
    limits (-90.0 20.0)
  end
  begin
     id 6 
     name rhipjoint
     direction -0.6077 -0.714582 0.346516   
     length 2.4176  
     axis 0 0 0  XYZ 
  end
  begin
     id 7 
     name rfemur
     direction -0.34202 -0.939693 0   
     length 7.28127   
     axis 0 0 -20   XYZ
    dof rx ry rz
    limits (-160.0 20.0)
           (-70.0 70.0)
           (-70.0 60.0)
  end
  begin
     id 8 
     name rtibia
     direction -0.34202 -0.939693 0   
     length 7.77648   
     axis 0 0 -20   XYZ
    dof rx
    limits (-10.0 170.0)
 end
 begin
     id 9 
     name rfoot
     direction -0.0809463 -0.222398 0.97159   
     length 2.37533  
     axis -90 -7.62852e-016 -20   XYZ
    dof rx rz
    limits (-45.0 90.0)
           (-20.0 70.0)
  end
  begin
     id 10 
     name rtoes
     direction -1.53568e-011 -4.21714e-011 1   
     length 1.18972   
     axis -90 -7.62852e-016 -20   XYZ
    dof rx
    limits (-90.0 20.0)
  end
  begin
     id 11 
     name lowerback
     direction 0.010968 0.991932 -0.126297   
     length 2.21698   
     axis 0 0 0   XYZ
    dof rx ry rz
    limits (-20.0 45.0)
           (-30.0 30.0)
           (-30.0 30.0)
  end
  begin
     id 12 
     name upperback
     direction 0.0167007 0.997503 -0.0686276   
     length 2.22371   
     axis 0 0 0   XYZ
    dof rx ry rz
    limits (-20.0 45.0)
           (-30.0 30.0)
           (-30.0 30.0)
  end
  begin
     id 13 
     name thorax
     direction 0.0111721 0.999885 -0.0102878   
     length 2.25242   
     axis 0 0 0   XYZ
    dof rx ry rz
    limits (-20.0 45.0)
           (-30.0 30.0)
           (-30.0 30.0)
  end
  begin
     id 14 
     name lowerneck
     direction -0.0120265 0.990428 0.137508   
     length 1.57674   
     axis 0 0 0   XYZ
    dof rx ry rz
    limits (-20.0 45.0)
           (-30.0 30.0)
           (-30.0 30.0)
  end
  begin
     id 15 
     name upperneck
     direction 0.0175669 0.998907 0.0433089   
     length 1.5618   
     axis 0 0 0   XYZ
    dof rx ry rz
    limits (-20.0 45.0)
           (-30.0 30.0)
           (-30.0 30.0)
  end
  begin
     id 16
     name head
     direction 0.00754609 0.99997 0.00185367  
     length 1.60579  
     axis 0 0 0   XYZ
    dof rx ry rz
    limits (-20.0 45.0)
           (-30.0 30.0)
           (-30.0 30.0)
  end
  begin
     id 17 
     name lclavicle
     direction 0.885866 0.429166 -0.176231  
     length 3.44967  
     axis 0 0 0   XYZ
    dof ry rz
    limits (-20.0 10.0)
           (0.0 20.0)
  end
  begin
     id 18 
     name lhumerus
     direction 1 -4.48973e-011 -1.90255e-027   
     length 5.20607   
     axis 180 -30 -90   XYZ
    dof rx ry rz
    limits (-60.0 90.0)
           (-90.0 90.0)
           (-90.0 90.0)
  end
  begin
     id 19
     name lradius
     direction 1 -4.48956e-011 9.87925e-027   
     length 3.39961   
     axis 180 -30 -90   XYZ
    dof rx
    limits (-10.0 170.0)
  end
  begin
     id 20
     name lwrist
     direction 1 -4.48985e-011 1.73247e-026   
     length 1.6998   
     axis -9.60847e-015 90 90   XYZ
    dof ry
    limits (-180.0 0.0)
 end
  begin
     id 21 
     name lhand
     direction 1 -4.48798e-011 3.46119e-026   
     length 0.519693   
     axis -2.21073e-014 90 90   XYZ
    dof rx rz
    limits (-90.0 90.0)
           (-45.0 45.0)
  end
  begin
     id 22 
     name lfingers
     direction 1 -4.48938e-011 6.92797e-026   
     length 0.41899   
     axis -4.42155e-014 90 90   XYZ
    dof rx
    limits (0.0 90.0)
  end
  begin
     id 23
     name lthumb
     direction 0.707107 -6.34952e-011 0.707107   
     length 0.601588   
     axis -90 45 6.0103e-014   XYZ
    dof rx rz
    limits (-45.0 45.0)
           (-45.0 45.0)
  end
  begin
     id 24 
     name rclavicle
     direction -0.866736 0.456792 -0.200276   
     length 3.45032  
     axis 0 0 0   XYZ 
    dof ry rz
    limits (-10.0 20.0)
           (-20.0 0.0)
  end
  begin
     id 25 
     name rhumerus
     direction -1 -4.4897e-011 8.65094e-028  
     length 5.32214   
     axis 180 30 90   XYZ
    dof rx ry rz
    limits (-90.0 60.0)
           (-90.0 90.0)
           (-90.0 90.0)
  end
  begin
     id 26 
     name rradius
     direction -1 -4.48987e-011 1.08427e-026   
     length 3.51208   
     axis 180 30 90   XYZ
    dof rx
    limits (-10.0 170.0)
  end
  begin
     id 27 
     name rwrist
     direction -1 -4.48961e-011 1.73222e-026   
     length 1.75604   
     axis -9.60847e-015 -90 -90   XYZ
    dof ry
    limits (-180.0 0.0)
  end
  begin
     id 28
     name rhand
     direction -1 -4.48895e-011 3.46314e-026   
     length 0.586681   
     axis -2.21073e-014 -90 -90   XYZ
    dof rx rz
    limits (-90.0 90.0)
           (-45.0 45.0)
  end
  begin
     id 29
     name rfingers
     direction -1 -4.48968e-011 6.92916e-026   
     length 0.472997   
     axis -4.42155e-014 -90 -90   XYZ
    dof rx
    limits (0.0 90.0)
  end
  begin
     id 30
     name rthumb
     direction -0.707107 -6.34848e-011 0.707107   
     length 0.679133   
     axis -90 -45 -6.0103e-014   XYZ
    dof rx rz
    limits (-45.0 45.0)
           (-45.0 45.0)
  end
:hierarchy
  begin
    root lhipjoint rhipjoint lowerback
    lhipjoint lfemur
    lfemur ltibia
    ltibia lfoot
    lfoot ltoes
    rhipjoint rfemur
    rfemur rtibia
    rtibia rfoot
    rfoot rtoes
    lowerback upperback
    upperback thorax
    thorax lowerneck lclavicle rclavicle
    lowerneck upperneck
    upperneck head
    lclavicle lhumerus
    lhumerus lradius
    lradius lwrist
    lwrist lhand lthumb
    lhand lfingers
    rclavicle rhumerus
    rhumerus rradius
    rradius rwrist
    rwrist rhand rthumb
    rhand rfingers
  end

#!OML:ASF H:\Dans Jumps\Project 1\Capture day 1\Session 1\subject.ASF
:FULLY-SPECIFIED
:DEGREES
41
root 0.423623 17.5537 -14.2843 5.76588 0.27043 -1.14271
lowerback -1.93678 -0.692912 -0.258864
upperback 2.42689 -0.973 1.76339
thorax 3.61768 -0.517372 1.91182
lowerneck -13.4217 0.384153 -1.8178
upperneck 27.9758 0.903131 0.377872
head 11.2769 0.261212 0.572181
rclavicle 8.34896e-015 -2.06736e-014
rhumerus -23.0279 -14.2362 -80.7971
rradius 28.0749
rwrist 28.554
rhand -18.4442 -27.1863
rfingers 7.12502
rthumb 7.84161 -57.0209
lclavicle 8.34896e-015 -2.06736e-014
lhumerus -21.0048 -0.517689 88.7881
lradius 21.1265
lwrist 3.23548
lhand -24.9696 -3.15798
lfingers 7.12502
lthumb 1.54091 26.8162
rfemur -13.3112 -2.99286 20.2428
rtibia 22.2966
rfoot -13.4949 -3.87838
rtoes 10.1096
lfemur -12.6934 7.05585 -18.8433
ltibia 18.9302
lfoot -10.9483 1.7776
ltoes 3.08069
42
root 0.429338 17.5523 -14.2808 5.72933 0.223389 -1.16981
lowerback -1.93694 -0.68299 -0.249008
upperback 2.42119 -0.960069 1.7643
thorax 3.61125 -0.510622 1.9079
lowerneck -13.4249 0.392061 -1.81675
upperneck 28.0111 0.916826 0.369789
head 11.2909 0.266164 0.571098
rclavicle 9.64106e-015 -1.86858e-014
rhumerus -22.9601 -14.0138 -80.9516
rradius 28.2514
rwrist 28.3326
rhand -18.4414 -27.1962
rfingers 7.12502
rthumb 7.84432 -57.0306
lclavicle 9.64106e-015 -1.86858e-014
lhumerus -20.9172 -0.411148 88.634
lradius 21.076
lwrist 3.23095
lhand -25.0445 -3.14469
lfingers 7.12502
lthumb 1.46861 26.83
rfemur -13.2703 -2.98334 20.2518
rtibia 22.3033
rfoot -13.4991 -3.87098
rtoes 10.0307
lfemur -12.6662 7.06892 -18.8286
ltibia 18.9978
lfoot -10.9935 1.82937
ltoes 3.06963
43
root 0.434847 17.5509 -14.2772 5.6965 0.170218 -1.19333
lowerback -1.94048 -0.6718 -0.243812
upperback 2.41543 -0.945317 1.7657
thorax 3.60669 -0.503107 1.90716
lowerneck -13.4378 0.400313 -1.8124
upperneck 28.0511 0.931641 0.357522
head 11.3088 0.271394 0.568143
rclavicle -5.91384e-015 2.0276e-014
rhumerus -22.8933 -13.7948 -81.0988
rradius 28.4189
rwrist 28.11
rhand -18.4595 -27.1932
rfingers 7.12502
rthumb 7.82686 -57.0283
lclavicle -5.91384e-015 2.0276e-014
lhumerus -20.8316 -0.315716 88.4867
lradius 21.0305
lwrist 3.20571
lhand -25.1026 -3.13989
lfingers 7.12502
lthumb 1.41251 26.8352
rfemur -13.2323 -2.96595 20.2567
rtibia 22.3093
rfoot -13.5057 -3.85993
rtoes 9.97055
lfemur -12.64 7.08497 -18.8176
ltibia 19.0605
lfoot -11.0346 1.88481
ltoes 3.04516
44
root 0.440097 17.5496 -14.2736 5.66835 0.116106 -1.2161
lowerback -1.95191 -0.661499 -0.24103
upperback 2.41116 -0.931815 1.76921
thorax 3.60826 -0.496346 1.90981
lowerneck -13.4575 0.411131 -1.80017
upperneck 28.0907 0.950727 0.336732
head 11.3279 0.278315 0.561319
rclavicle -9.0447e-015 -9.93923e-015
rhumerus -22.8227 -13.5788 -81.2388
rradius 28.5758
rwrist 27.899
rhand -18.4721 -27.1991
rfingers 7.12502
rthumb 7.81471 -57.0347
lclavicle -9.0447e-015 -9.93923e-015
lhumerus -20.7507 -0.21199 88.3435
lradius 20.9988
lwrist 3.14173
lhand -25.1375 -3.11963
lfingers 7.12502
lthumb 1.37882 26.8557
rfemur -13.198 -2.94355 20.261
rtibia 22.3149
rfoot -13.5144 -3.84756
rtoes 9.92472
lfemur -12.6163 7.10439 -18.8071
ltibia 19.1183
lfoot -11.0735 1.93929
ltoes 3.00824
45
root 0.445039 17.5484 -14.2701 5.6446 0.0637754 -1.23843
lowerback -1.9703 -0.653081 -0.240521
upperback 2.41019 -0.920909 1.77449
thorax 3.61737 -0.491017 1.91536
lowerneck -13.4868 0.421529 -1.78647
upperneck 28.1292 0.970049 0.312491
head 11.3486 0.285054 0.553046
rclavicle -1.40143e-014 2.10712e-014
rhumerus -22.7403 -13.3652 -81.3743
rradius 28.7157
rwrist 27.706
rhand -18.494 -27.2004
rfingers 7.12502
rthumb 7.79353 -57.0367
lclavicle -1.40143e-014 2.10712e-014
lhumerus -20.6646 -0.111269 88.2054
lradius 20.97
lwrist 3.05914
lhand -25.1659 -3.1112
lfingers 7.12502
lthumb 1.35135 26.8643
rfemur -13.1672 -2.91786 20.2656
rtibia 22.3197
rfoot -13.5252 -3.83336
rtoes 9.91049
lfemur -12.5986 7.12806 -18.7973
ltibia 19.1728
lfoot -11.1091 1.99395
ltoes 2.9321
46
root 0.449686 17.5473 -14.2667 5.6241 0.0137462 -1.25905
lowerback -1.99599 -0.647692 -0.243719
upperback 2.4117 -0.914069 1.78172
thorax 3.63341 -0.487888 1.92471
lowerneck -13.5064 0.432085 -1.77561
upperneck 28.1538 0.990054 0.288027
head 11.3621 0.291887 0.545145
rclavicle 7.50412e-015 -9.14409e-015
rhumerus -22.6471 -13.154 -81.5036
rradius 28.8352
rwrist 27.5441
rhand -18.5162 -27.2033
rfingers 7.12502
rthumb 7.77217 -57.0405
lclavicle 7.50412e-015 -9.14409e-015
lhumerus -20.5764 -0.01876 88.0743
lradius 20.944
lwrist 2.97685
lhand -25.1907 -3.10198
lfingers 7.12502
lthumb 1.32739 26.8736
rfemur -13.1391 -2.89435 20.2696
rtibia 22.3233
rfoot -13.5362 -3.81734
rtoes 9.89837
lfemur -12.5856 7.15548 -18.7893
ltibia 19.2249
lfoot -11.1428 2.04805
ltoes 2.83381
47
root 0.454054 17.5462 -14.2633 5.60463 -0.0342684 -1.28179
lowerback -2.02472 -0.643863 -0.24549
upperback 2.41502 -0.909472 1.79064
thorax 3.65314 -0.485892 1.93487
lowerneck -13.521 0.44323 -1.76392
upperneck 28.1715 1.0108 0.262545
head 11.3718 0.299077 0.536759
rclavicle -9.34288e-015 5.1684e-015
rhumerus -22.5476 -12.9489 -81.6258
rradius 28.9359
rwrist 27.4183
rhand -18.5356 -27.2096
rfingers 7.12502
rthumb 7.75336 -57.0474
lclavicle -9.34288e-015 5.1684e-015
lhumerus -20.4888 0.0654912 87.9491
lradius 20.9218
lwrist 2.89851
lhand -25.2184 -3.09998
lfingers 7.12502
lthumb 1.30064 26.8758
rfemur -13.1126 -2.87361 20.2772
rtibia 22.3274
rfoot -13.5473 -3.79865
rtoes 9.8978
lfemur -12.5761 7.19171 -18.779
ltibia 19.2744
lfoot -11.1751 2.09968
ltoes 2.70708
48
root 0.458239 17.545 -14.26 5.58372 -0.0807284 -1.30132
lowerback -2.05088 -0.641536 -0.249509
upperback 2.4176 -0.90674 1.79874
thorax 3.67073 -0.484862 1.94538
lowerneck -13.5221 0.454941 -1.75335
upperneck 28.1801 1.03141 0.239912
head 11.3754 0.306535 0.529472
rclavicle 8.44835e-016 1.51076e-014
rhumerus -22.447 -12.7579 -81.7404
rradius 29.0178
rwrist 27.3268
rhand -18.5477 -27.2231
rfingers 7.12502
rthumb 7.74177 -57.0614
lclavicle 8.44835e-016 1.51076e-014
lhumerus -20.4082 0.146776 87.8272
lradius 20.9033
lwrist 2.82803
lhand -25.2334 -3.09122
lfingers 7.12502
lthumb 1.28615 26.8847
rfemur -13.0859 -2.86241 20.2822
rtibia 22.3342
rfoot -13.5602 -3.77356
rtoes 9.89481
lfemur -12.5658 7.23764 -18.7722
ltibia 19.3205
lfoot -11.2108 2.15139
ltoes 2.5581
49
root 0.46236 17.5438 -14.2566 5.56147 -0.127417 -1.31528
lowerback -2.07512 -0.639029 -0.255034
upperback 2.41864 -0.903557 1.8034
thorax 3.6856 -0.483576 1.95323
lowerneck -13.5131 0.466681 -1.7416
upperneck 28.1848 1.05051 0.220552
head 11.3754 0.313897 0.522906
rclavicle 1.02374e-014 -1.19271e-015
rhumerus -22.3492 -12.5887 -81.8467
rradius 29.0814
rwrist 27.2718
rhand -18.5542 -27.2329
rfingers 7.12502
rthumb 7.73546 -57.0715
lclavicle 1.02374e-014 -1.19271e-015
lhumerus -20.3351 0.213055 87.709
lradius 20.8869
lwrist 2.77765
lhand -25.249 -3.10045
lfingers 7.12502
lthumb 1.27109 26.8755
rfemur -13.0606 -2.86251 20.2812
rtibia 22.347
rfoot -13.5766 -3.73754
rtoes 9.89562
lfemur -12.5532 7.29142 -18.7714
ltibia 19.3642
lfoot -11.2585 2.21464
ltoes 2.38984
50
root 0.466429 17.5425 -14.2532 5.53581 -0.173237 -1.32174
lowerback -2.09544 -0.636308 -0.263547
upperback 2.41948 -0.899796 1.80386
thorax 3.69798 -0.482008 1.95849
lowerneck -13.5038 0.477062 -1.73116
upperneck 28.1913 1.06657 0.20615
head 11.376 0.320347 0.517978
rclavicle 9.83984e-015 -3.22031e-014
rhumerus -22.2537 -12.4455 -81.9453
rradius 29.1264
rwrist 27.2444
rhand -18.5722 -27.2268
rfingers 7.12502
rthumb 7.71805 -57.066
lclavicle 9.83984e-015 -3.22031e-014
lhumerus -20.2722 0.274558 87.5931
lradius 20.8779
lwrist 2.74011
lhand -25.2497 -3.09764
lfingers 7.12502
lthumb 1.2704 26.8783
rfemur -13.0363 -2.87588 20.2722
rtibia 22.369
rfoot -13.5983 -3.6917
rtoes 9.89898
lfemur -12.5346 7.35194 -18.7782
ltibia 19.4072
lfoot -11.3313 2.31126
ltoes 2.1559
51
root 0.470401 17.541 -14.2499 5.50888 -0.219304 -1.32395
lowerback -2.11068 -0.6331 -0.273525
upperback 2.41955 -0.895204 1.80226
thorax 3.70664 -0.480014 1.96255
lowerneck -13.5019 0.484157 -1.72821
upperneck 28.2041 1.07801 0.198877
head 11.3805 0.32473 0.516397
rclavicle 2.28602e-015 1.59028e-015
rhumerus -22.1613 -12.3225 -82.0364
rradius 29.1607
rwrist 27.2337
rhand -18.5937 -27.2137
rfingers 7.12502
rthumb 7.69729 -57.0536
lclavicle 2.28602e-015 1.59028e-015
lhumerus -20.2165 0.336232 87.4807
lradius 20.8723
lwrist 2.71097
lhand -25.2467 -3.09847
lfingers 7.12502
lthumb 1.27327 26.8775
rfemur -13.0173 -2.89424 20.2593
rtibia 22.4027
rfoot -13.6262 -3.64293
rtoes 9.91465
lfemur -12.5133 7.41864 -18.7885
ltibia 19.4542
lfoot -11.4389 2.46986
ltoes 1.78439
52
root 0.474224 17.5392 -14.2469 5.48305 -0.263725 -1.32658
lowerback -2.12179 -0.630713 -0.282288
upperback 2.41845 -0.891743 1.80179
thorax 3.7118 -0.478546 1.96708
lowerneck -13.5023 0.489805 -1.73086
upperneck 28.2177 1.08812 0.194249
head 11.3857 0.328234 0.516587
rclavicle -8.44835e-016 4.37326e-015
rhumerus -22.0701 -12.2185 -82.1186
rradius 29.1829
rwrist 27.2379
rhand -18.6204 -27.1939
rfingers 7.12502
rthumb 7.67153 -57.0347
lclavicle -8.44835e-016 4.37326e-015
lhumerus -20.171 0.407827 87.3727
lradius 20.8766
lwrist 2.68411
lhand -25.2316 -3.08297
lfingers 7.12502
lthumb 1.28785 26.8929
rfemur -13.007 -2.91235 20.2481
rtibia 22.4487
rfoot -13.6598 -3.59762
rtoes 9.94575
lfemur -12.4935 7.48901 -18.7965
ltibia 19.5112
lfoot -11.59 2.70424
ltoes 1.22476
53
root 0.477836 17.537 -14.2443 5.45846 -0.304631 -1.33264
lowerback -2.12699 -0.629573 -0.28754
upperback 2.4159 -0.890094 1.80367
thorax 3.71216 -0.477888 1.97201
lowerneck -13.5084 0.495832 -1.73224
upperneck 28.234 1.09972 0.185861
head 11.3932 0.332036 0.515424
rclavicle -1.88845e-015 6.75868e-015
rhumerus -21.9804 -12.1292 -82.1929
rradius 29.1974
rwrist 27.2455
rhand -18.6403 -27.1831
rfingers 7.12502
rthumb 7.65232 -57.0246
lclavicle -1.88845e-015 6.75868e-015
lhumerus -20.1324 0.485755 87.2698
lradius 20.8845
lwrist 2.65876
lhand -25.2139 -3.06198
lfingers 7.12502
lthumb 1.305 26.9138
rfemur -13.0051 -2.92241 20.2426
rtibia 22.507
rfoot -13.6994 -3.56462
rtoes 10.0019
lfemur -12.4799 7.56264 -18.7985
ltibia 19.5846
lfoot -11.782 3.01836
ltoes 0.440327
